<?xml version="1.0" encoding="utf-8"?>
<!-- Generator: Adobe Illustrator 20.1.0, SVG Export Plug-In . SVG Version: 6.00 Build 0)  -->
<svg version="1.1" id="Layer_1" xmlns="http://www.w3.org/2000/svg" xmlns:xlink="http://www.w3.org/1999/xlink" x="0px" y="0px"
	 viewBox="0 0 144 144" style="enable-background:new 0 0 144 144;" xml:space="preserve">
<style type="text/css">
	.st0{fill:none;stroke:#2A6496;stroke-width:2;}
</style>
<g>
	<g>
		<path class="st0" d="M125.9,104.7c0,5.3-4.3,9.6-9.6,9.6H27.7c-5.3,0-9.6-4.3-9.6-9.6V39.3c0-5.3,4.3-9.6,9.6-9.6h88.5
			c5.3,0,9.6,4.3,9.6,9.6V104.7z M116.3,37.4H27.7c-1,0-1.9,0.9-1.9,1.9c0,6.9,3.4,12.8,8.8,17.1c8.1,6.3,16.1,12.7,24.1,19.1
			c3.2,2.6,9,8.1,13.2,8.1H72h0.1c4.2,0,10-5.5,13.2-8.1c8-6.4,16.1-12.7,24.1-19.1c3.9-3.1,8.8-9.7,8.8-14.8
			C118.2,40,118.5,37.4,116.3,37.4z M118.2,58.5c-1.3,1.4-2.6,2.8-4.1,4c-8.6,6.6-17.3,13.4-25.6,20.3c-4.5,3.8-10.1,8.4-16.4,8.4
			H72h-0.1c-6.3,0-11.9-4.6-16.4-8.4c-8.4-7-17-13.7-25.6-20.3c-1.5-1.2-2.9-2.5-4.2-4v46.2c0,1,0.9,1.9,1.9,1.9h88.5
			c1,0,1.9-0.9,1.9-1.9V58.5z"/>
	</g>
</g>
</svg>
