<?xml version="1.0" encoding="utf-8"?>
<!-- Generator: Adobe Illustrator 20.1.0, SVG Export Plug-In . SVG Version: 6.00 Build 0)  -->
<svg version="1.1" id="Layer_1" xmlns="http://www.w3.org/2000/svg" xmlns:xlink="http://www.w3.org/1999/xlink" x="0px" y="0px"
	 viewBox="0 0 144 144" style="enable-background:new 0 0 144 144;" xml:space="preserve">
<style type="text/css">
	.st0{fill:none;stroke:#8F0100;stroke-width:2;}
</style>
<g>
	<g>
		<path class="st0" d="M74,18c20.4,0,38.9,14,38.9,35.5c0,20.2-10.3,42.6-33.3,42.6c-5.5,0-12.3-2.7-15-7.8
			c-4.9,19.5-4.6,22.5-15.5,37.4l-0.9,0.3l-0.6-0.7c-0.4-4.1-1-8.1-1-12.2c0-13.2,6.1-32.4,9.1-45.2c-1.6-3.3-2.1-7.3-2.1-11
			c0-6.6,4.5-14.9,11.9-14.9c5.5,0,8.4,4.2,8.4,9.3c0,8.4-5.7,16.4-5.7,24.5c0,5.6,4.6,9.5,10,9.5c14.9,0,19.5-21.5,19.5-33
			C97.9,37,87,28.6,72.2,28.6c-17.1,0-30.4,12.3-30.4,29.7C41.9,66.7,47,71,47,73c0,1.7-1.2,7.7-3.4,7.7c-0.3,0-0.8-0.1-1.1-0.2
			c-9.3-2.8-12.7-15.2-12.7-23.7C29.8,32.8,51.8,18,74,18z"/>
	</g>
</g>
</svg>
