<?xml version="1.0" encoding="utf-8"?>
<!-- Generator: Adobe Illustrator 20.1.0, SVG Export Plug-In . SVG Version: 6.00 Build 0)  -->
<svg version="1.1" id="Layer_1" xmlns="http://www.w3.org/2000/svg" xmlns:xlink="http://www.w3.org/1999/xlink" x="0px" y="0px"
	 viewBox="0 0 144 144" style="enable-background:new 0 0 144 144;" xml:space="preserve">
<style type="text/css">
	.st0{fill:none;stroke:#8F0100;stroke-width:2;}
</style>
<g>
	<g>
		<path class="st0" d="M114.8,50.1c0.1,1,0.1,1.9,0.1,2.9c0,29.2-22.2,62.8-62.8,62.8c-12.5,0-24.1-3.6-33.9-9.9
			c1.8,0.2,3.5,0.3,5.3,0.3c10.3,0,19.8-3.5,27.4-9.4c-9.7-0.2-17.8-6.6-20.6-15.3c1.4,0.2,2.7,0.3,4.2,0.3c2,0,4-0.3,5.8-0.7
			C30.1,78.9,22.5,70,22.5,59.3c0-0.1,0-0.2,0-0.3c2.9,1.6,6.4,2.7,10,2.8c-5.9-4-9.8-10.7-9.8-18.4c0-4.1,1.1-7.9,3-11.1
			c10.9,13.4,27.2,22.1,45.5,23.1c-0.3-1.6-0.5-3.3-0.5-5.1c0-12.2,9.8-22.1,22.1-22.1c6.4,0,12.1,2.7,16.1,7c5-1,9.8-2.8,14-5.3
			c-1.6,5.1-5.1,9.4-9.7,12.2c4.4-0.5,8.8-1.7,12.7-3.4C122.9,43,119.1,46.9,114.8,50.1z"/>
	</g>
</g>
</svg>
